<svg id="f79f073b-414e-40fa-938b-23ef571d3b23" data-name="Layer 1" xmlns="http://www.w3.org/2000/svg" viewBox="0 0 1080 1080"><defs><style>.ec7e8b86-8b14-4ff2-a9f7-23728bbdf65e{fill:#009fdf;}.bb03061c-6e55-4e65-8ab3-3a6cd07948fc{fill:#071d49;}.ee58baa4-6f3c-4761-9135-c3af63f4cdce{fill:#fff;}</style></defs><title>LA UNION - PRC LOGO</title><rect class="ec7e8b86-8b14-4ff2-a9f7-23728bbdf65e" x="309.2" y="429.6" width="676.2" height="107.3"/><path class="bb03061c-6e55-4e65-8ab3-3a6cd07948fc" d="M311.8,421.6l15.9-37.9h.3l15.9,37.9h-5.6l-11.9-30.2,3.5-2.3-13.3,32.5Zm9.3-13.8h13.6l1.6,4.3H319.7Z"/><path class="bb03061c-6e55-4e65-8ab3-3a6cd07948fc" d="M379.3,418.9a17.2,17.2,0,0,1-2.5,1.4,15.2,15.2,0,0,1-3.6,1.2,16.6,16.6,0,0,1-4.6.5,18.7,18.7,0,0,1-7.6-1.5,16.9,16.9,0,0,1-5.8-3.9,18.7,18.7,0,0,1-3.6-5.9,18.2,18.2,0,0,1-1.3-7,20.4,20.4,0,0,1,1.3-7.5,18.6,18.6,0,0,1,3.8-6,17.8,17.8,0,0,1,5.7-4,19.8,19.8,0,0,1,13.2-.5,24.5,24.5,0,0,1,4.6,2.1l-2,4.5a25.1,25.1,0,0,0-3.7-1.9,11.9,11.9,0,0,0-4.7-.9,12.6,12.6,0,0,0-5.1,1.1,14.6,14.6,0,0,0-4.1,2.9,15.1,15.1,0,0,0-2.9,4.5,14.2,14.2,0,0,0-1,5.5,16.7,16.7,0,0,0,.9,5.5,12.5,12.5,0,0,0,2.7,4.4,11.7,11.7,0,0,0,4.2,2.9,13.8,13.8,0,0,0,5.5,1.1,13.1,13.1,0,0,0,5-.9,16.2,16.2,0,0,0,3.5-1.9Z"/><path class="bb03061c-6e55-4e65-8ab3-3a6cd07948fc" d="M388.6,385.2h24.2v4.7H403v31.7h-4.9V389.9h-9.5Z"/><path class="bb03061c-6e55-4e65-8ab3-3a6cd07948fc" d="M428.7,408.8a8.3,8.3,0,0,0,1.2,4.4,8.1,8.1,0,0,0,3.1,3,9.4,9.4,0,0,0,4.5,1.1,10.1,10.1,0,0,0,4.6-1.1,7.5,7.5,0,0,0,3.1-3,8.3,8.3,0,0,0,1.2-4.4V385.2h4.8v23.7a12.5,12.5,0,0,1-1.9,7,11.8,11.8,0,0,1-4.9,4.5,14.6,14.6,0,0,1-6.9,1.6,14.1,14.1,0,0,1-6.9-1.6,11.8,11.8,0,0,1-4.9-4.5,13.3,13.3,0,0,1-1.8-7V385.2h4.8Z"/><path class="bb03061c-6e55-4e65-8ab3-3a6cd07948fc" d="M460.7,421.6l15.9-37.9h.3l15.9,37.9h-5.6l-11.9-30.2,3.5-2.3-13.3,32.5Zm9.3-13.8h13.5l1.7,4.3H468.6Z"/><path class="bb03061c-6e55-4e65-8ab3-3a6cd07948fc" d="M503.4,385.2h4.9V417h18.5v4.6H503.4Z"/><path class="bb03061c-6e55-4e65-8ab3-3a6cd07948fc" d="M538.5,385.2h4.9v36.4h-4.9Z"/><path class="bb03061c-6e55-4e65-8ab3-3a6cd07948fc" d="M555,421.6l1.6-2.4c.8-1.1,1.7-2.4,2.7-4l3.2-4.8,3.6-5.4,3.6-5.3,3.2-4.8,2.7-3.9a27.5,27.5,0,0,1,1.7-2.4l.6,1.3H561.1a6.3,6.3,0,0,1-1.9-.3,4.6,4.6,0,0,1-1.6-1.1,2.5,2.5,0,0,1-.6-1.7v-3.4h4.6v.7c0,.6.1.9.3,1h23l-22,32.4-.3-.6h22.9v4.6Z"/><path class="bb03061c-6e55-4e65-8ab3-3a6cd07948fc" d="M593.6,421.6l16-37.9h.3l15.8,37.9h-5.6l-11.9-30.2,3.5-2.3-13.3,32.5Zm9.4-13.8h13.5l1.6,4.3H601.5Z"/><path class="bb03061c-6e55-4e65-8ab3-3a6cd07948fc" d="M661.1,418.9l-2.4,1.4a17.9,17.9,0,0,1-3.7,1.2,16.6,16.6,0,0,1-4.6.5,18.7,18.7,0,0,1-7.6-1.5,16.5,16.5,0,0,1-5.7-3.9,19,19,0,0,1-3.7-5.9,18.2,18.2,0,0,1-1.3-7,22.7,22.7,0,0,1,1.3-7.5,18.6,18.6,0,0,1,3.8-6,17.8,17.8,0,0,1,5.7-4,19.8,19.8,0,0,1,13.2-.5,21.9,21.9,0,0,1,4.6,2.1l-2,4.5a29.5,29.5,0,0,0-3.6-1.9,12.8,12.8,0,0,0-4.8-.9,11.8,11.8,0,0,0-5,1.1,13.7,13.7,0,0,0-4.2,2.9,15.1,15.1,0,0,0-2.9,4.5,14.2,14.2,0,0,0-1,5.5,16.7,16.7,0,0,0,.9,5.5,14.1,14.1,0,0,0,2.7,4.4,13.7,13.7,0,0,0,4.2,2.9,14.2,14.2,0,0,0,5.5,1.1,13.1,13.1,0,0,0,5-.9,20.1,20.1,0,0,0,3.6-1.9Z"/><path class="bb03061c-6e55-4e65-8ab3-3a6cd07948fc" d="M673.1,385.2H678v36.4h-4.9Z"/><path class="bb03061c-6e55-4e65-8ab3-3a6cd07948fc" d="M690,403.5a19.2,19.2,0,0,1,1.4-7.2,19.9,19.9,0,0,1,4-5.9,20.2,20.2,0,0,1,5.9-4.1,18,18,0,0,1,7.3-1.5,17.1,17.1,0,0,1,7.1,1.5,19.4,19.4,0,0,1,6,4.1,18.1,18.1,0,0,1,4,5.9,17.5,17.5,0,0,1,1.5,7.2,18.7,18.7,0,0,1-5.5,13.1,17.5,17.5,0,0,1-6,4,17,17,0,0,1-7.1,1.4,18.5,18.5,0,0,1-13.2-5.3,18.7,18.7,0,0,1-4-5.9A19.4,19.4,0,0,1,690,403.5Zm5,0a14.1,14.1,0,0,0,1.1,5.4,16,16,0,0,0,2.9,4.4,12.8,12.8,0,0,0,4.3,3,13.6,13.6,0,0,0,10.7,0,12.5,12.5,0,0,0,4.2-3,16,16,0,0,0,2.9-4.4,14.1,14.1,0,0,0,1.1-5.4,13.7,13.7,0,0,0-1.1-5.4,15.1,15.1,0,0,0-2.9-4.5,13.3,13.3,0,0,0-9.6-4.1,14.1,14.1,0,0,0-5.4,1.1,16.6,16.6,0,0,0-4.3,3,15.1,15.1,0,0,0-2.9,4.5A16.2,16.2,0,0,0,695,403.5Zm21.3-26.9-6.4,6.7H707l4.1-6.7Z"/><path class="bb03061c-6e55-4e65-8ab3-3a6cd07948fc" d="M770.7,422.8l-28.1-28.6,1.4.4v27h-4.9V384.1h.2l27.9,28.7-1.2-.3V385.2h4.9v37.6Z"/><path class="ee58baa4-6f3c-4761-9135-c3af63f4cdce" d="M340.1,449.7a30.7,30.7,0,0,1,13.5,2.7,19.1,19.1,0,0,1,8.5,7.6,22.4,22.4,0,0,1,2.9,11.6,28.2,28.2,0,0,1-1.2,8,20,20,0,0,1-3.8,7.2,17.7,17.7,0,0,1-6.9,5.3,26.2,26.2,0,0,1-10.7,2h-9.2v20.5H320.4V449.7Zm2.2,31.9a10,10,0,0,0,4.8-1,9.7,9.7,0,0,0,3.1-2.5,10.9,10.9,0,0,0,1.5-3.3,8,8,0,0,0,.5-2.9,15.8,15.8,0,0,0-.3-2.6,9.1,9.1,0,0,0-1.3-3.3,7.8,7.8,0,0,0-2.9-2.8,10.2,10.2,0,0,0-5.3-1.1h-9.2v19.5Z"/><path class="ee58baa4-6f3c-4761-9135-c3af63f4cdce" d="M374.4,445h12.4v69.6H374.4Z"/><path class="ee58baa4-6f3c-4761-9135-c3af63f4cdce" d="M415.7,515.7a22,22,0,0,1-9.7-2.2,15.6,15.6,0,0,1-7-6.7c-1.7-3-2.5-6.8-2.5-11.4a23.6,23.6,0,0,1,2.6-11.3,20,20,0,0,1,7-7.4,17.8,17.8,0,0,1,9.2-2.6c3.8,0,6.7.7,8.6,1.9a22.9,22.9,0,0,1,4.9,4.2l-.5,1.5,1.2-5.6h11.4v38.5H428.6v-8.4l.9,2.7c-.1,0-.4.3-1,1a21.5,21.5,0,0,1-2.6,2.4,16.9,16.9,0,0,1-4.2,2.3A15.7,15.7,0,0,1,415.7,515.7Zm3.5-10.1a10.2,10.2,0,0,0,4-.7,7.7,7.7,0,0,0,3.1-1.9,11.4,11.4,0,0,0,2.3-3.2v-9.4a9.3,9.3,0,0,0-2.1-3.3,9.5,9.5,0,0,0-3.4-2.2,11.8,11.8,0,0,0-4.3-.7,8.5,8.5,0,0,0-4.9,1.4,9.8,9.8,0,0,0-3.6,3.7,10.9,10.9,0,0,0-1.3,5.5,11.2,11.2,0,0,0,1.4,5.5,9.5,9.5,0,0,0,3.8,3.9A9.7,9.7,0,0,0,419.2,505.6Z"/><path class="ee58baa4-6f3c-4761-9135-c3af63f4cdce" d="M464.8,476.1l1,6.9-.2-.7a15.8,15.8,0,0,1,5.7-5.8,17.3,17.3,0,0,1,9.1-2.3,13.3,13.3,0,0,1,9.1,3.2,11.1,11.1,0,0,1,3.8,8.4v28.8H480.9V490.4a6.5,6.5,0,0,0-1.3-4.1c-.9-1.1-2.3-1.6-4.3-1.6a6.9,6.9,0,0,0-4.9,1.9,11.3,11.3,0,0,0-3.3,5,20.3,20.3,0,0,0-1.2,7.3v15.7H453.6V476.1Z"/><path class="ee58baa4-6f3c-4761-9135-c3af63f4cdce" d="M556.3,449.7a33.3,33.3,0,0,1,10.9,1.6,21.6,21.6,0,0,1,7.9,4.4,18.2,18.2,0,0,1,4.9,6.8,23.8,23.8,0,0,1,1.7,9.1,27.1,27.1,0,0,1-1.2,7.9,19.4,19.4,0,0,1-3.9,7.2,18.4,18.4,0,0,1-7.1,5.3,26.5,26.5,0,0,1-10.9,2h-9.2v20.6H536.7V449.7Zm2.2,31.9a11.6,11.6,0,0,0,4.9-.9,8.4,8.4,0,0,0,3-2.5,11.5,11.5,0,0,0,1.6-3.1,11.8,11.8,0,0,0,.5-3.1,15.7,15.7,0,0,0-.3-2.7,11.3,11.3,0,0,0-1.3-3.3,8.2,8.2,0,0,0-3-2.8,10.2,10.2,0,0,0-5.3-1.1h-9.2v19.5Zm12,8,16.1,25H571.7l-16.4-24.7Z"/><path class="ee58baa4-6f3c-4761-9135-c3af63f4cdce" d="M612.3,515.7a24.1,24.1,0,0,1-11.9-2.7,17.6,17.6,0,0,1-7.5-7.3,22.1,22.1,0,0,1-2.6-10.8,19.4,19.4,0,0,1,3-10.5,22.3,22.3,0,0,1,8.1-7.4,21.9,21.9,0,0,1,11.2-2.8,19.7,19.7,0,0,1,13.6,4.8c3.5,3.2,5.8,7.9,6.9,13.9l-30,9.5-2.7-6.7,21.7-7.3-2.6,1.2a8,8,0,0,0-2.5-4,7.3,7.3,0,0,0-5.4-1.8,9.6,9.6,0,0,0-4.8,1.3,8.6,8.6,0,0,0-3.2,3.6,13.5,13.5,0,0,0-1.1,5.5,13.8,13.8,0,0,0,1.3,6.1,8.9,8.9,0,0,0,3.6,3.6,10.3,10.3,0,0,0,5.2,1.3,13.4,13.4,0,0,0,3.9-.7,21.6,21.6,0,0,0,3.7-1.9l5.5,9.2a30.6,30.6,0,0,1-6.7,2.8A23.4,23.4,0,0,1,612.3,515.7Z"/><path class="ee58baa4-6f3c-4761-9135-c3af63f4cdce" d="M662,534a28.4,28.4,0,0,1-8.8-1.2,33.5,33.5,0,0,1-6-3l-4.4-3.4,7.2-8.5a34.3,34.3,0,0,0,4.7,3.6,12.7,12.7,0,0,0,7.1,1.7,14.2,14.2,0,0,0,5.5-1,9.9,9.9,0,0,0,4-2.9,7.8,7.8,0,0,0,1.6-4.9V506l.4,2.2a12.1,12.1,0,0,1-5.1,5.2,20.1,20.1,0,0,1-19.4-.4,20.1,20.1,0,0,1-9.7-17.9,20.7,20.7,0,0,1,2.8-10.8,21.6,21.6,0,0,1,7.3-7.4,17.6,17.6,0,0,1,9.6-2.8,22.4,22.4,0,0,1,8.6,1.5,13.9,13.9,0,0,1,5.6,3.6l-.5,1.1,1.3-4.2h11.4v38.5a16.6,16.6,0,0,1-3.2,10,22,22,0,0,1-8.4,6.9A26,26,0,0,1,662,534Zm-10.5-39.2a11.2,11.2,0,0,0,1.4,5.5,10.4,10.4,0,0,0,3.9,3.9,10.9,10.9,0,0,0,5.4,1.4,12.5,12.5,0,0,0,4.5-.7,9.6,9.6,0,0,0,3.6-1.9,10.4,10.4,0,0,0,2.6-3.2v-9.4a10,10,0,0,0-2.4-3.3,10.7,10.7,0,0,0-3.7-2.2,13.5,13.5,0,0,0-4.6-.7,9.9,9.9,0,0,0-5.4,1.4,10.6,10.6,0,0,0-3.9,3.7A11,11,0,0,0,651.5,494.8Z"/><path class="ee58baa4-6f3c-4761-9135-c3af63f4cdce" d="M710.3,516.5a12.4,12.4,0,0,1-8.7-3.3,11.3,11.3,0,0,1-3.7-8.3V476.1h12.3v24.2a8,8,0,0,0,1.4,4.1,4.4,4.4,0,0,0,3.8,1.6,7.1,7.1,0,0,0,4.8-1.9,11.5,11.5,0,0,0,3-5.1,20.2,20.2,0,0,0,1.1-7.2V476.1h12.4v38.5H725.5l-1-7.1.2.8a19.7,19.7,0,0,1-3.3,4.3,13.9,13.9,0,0,1-4.9,2.8A17.1,17.1,0,0,1,710.3,516.5Z"/><path class="ee58baa4-6f3c-4761-9135-c3af63f4cdce" d="M749.4,445h12.3v69.6H749.4Z"/><path class="ee58baa4-6f3c-4761-9135-c3af63f4cdce" d="M790.6,515.7a22.3,22.3,0,0,1-9.7-2.2,15.9,15.9,0,0,1-6.9-6.7,22.9,22.9,0,0,1-2.6-11.4,22.5,22.5,0,0,1,2.7-11.3,19.7,19.7,0,0,1,6.9-7.4,18.1,18.1,0,0,1,9.2-2.6c3.8,0,6.7.7,8.7,1.9a22.9,22.9,0,0,1,4.9,4.2l-.5,1.5,1.1-5.6h11.5v38.5H803.5v-8.4l1,2.7c-.1,0-.5.3-1.1,1a15.9,15.9,0,0,1-2.6,2.4,13.9,13.9,0,0,1-4.2,2.3A15.7,15.7,0,0,1,790.6,515.7Zm3.6-10.1a9.7,9.7,0,0,0,3.9-.7,7.7,7.7,0,0,0,3.1-1.9,9.8,9.8,0,0,0,2.3-3.2v-9.4a9.3,9.3,0,0,0-2.1-3.3,9.1,9.1,0,0,0-3.3-2.2,12.3,12.3,0,0,0-4.4-.7,8.7,8.7,0,0,0-4.9,1.4,9.6,9.6,0,0,0-3.5,3.7,11,11,0,0,0-1.4,5.5,10.3,10.3,0,0,0,1.5,5.5,9.3,9.3,0,0,0,3.7,3.9A10.3,10.3,0,0,0,794.2,505.6Z"/><path class="ee58baa4-6f3c-4761-9135-c3af63f4cdce" d="M844.2,515.7a18.7,18.7,0,0,1-9.6-2.6,17.1,17.1,0,0,1-6.6-7.2,25.1,25.1,0,0,1-2.4-11.3c0-4.4.8-8.1,2.6-11.1a17.9,17.9,0,0,1,7.2-7,22.4,22.4,0,0,1,10.4-2.4,20.8,20.8,0,0,1,7.1,1.2,12.8,12.8,0,0,1,5.7,3.5V445h12.3v69.6H858.5v-7.5l1,2.7a30,30,0,0,1-6.7,4.1A19.4,19.4,0,0,1,844.2,515.7Zm4.1-10.4a15,15,0,0,0,4.4-.7,10.9,10.9,0,0,0,3.3-1.9,12,12,0,0,0,2.5-3.3V490a8.1,8.1,0,0,0-2.1-3.3,10.7,10.7,0,0,0-3.6-2.1,12.9,12.9,0,0,0-4.5-.8,10.3,10.3,0,0,0-5.1,1.4,10.9,10.9,0,0,0-3.7,3.7,10.3,10.3,0,0,0-1.4,5.5,10.6,10.6,0,0,0,1.4,5.6,10.4,10.4,0,0,0,3.7,3.8A9.5,9.5,0,0,0,848.3,505.3Z"/><path class="ee58baa4-6f3c-4761-9135-c3af63f4cdce" d="M880.6,494.9a19.5,19.5,0,0,1,10.5-18,24.2,24.2,0,0,1,11.6-2.7,23.5,23.5,0,0,1,11.5,2.7,18.8,18.8,0,0,1,7.4,7.4,21.6,21.6,0,0,1,2.6,10.6,22.2,22.2,0,0,1-2.6,10.6,18.8,18.8,0,0,1-7.4,7.4,24.1,24.1,0,0,1-11.7,2.8,25.7,25.7,0,0,1-11.3-2.5,18.7,18.7,0,0,1-7.8-7.2A20.8,20.8,0,0,1,880.6,494.9Zm12.4,0a12.6,12.6,0,0,0,1.2,5.5,10.5,10.5,0,0,0,3.4,3.8,8.6,8.6,0,0,0,4.7,1.4,9.3,9.3,0,0,0,5.1-1.4,8.5,8.5,0,0,0,3.2-3.8,12.6,12.6,0,0,0,1.2-5.5,11.9,11.9,0,0,0-1.2-5.4,8.6,8.6,0,0,0-8.3-5.2,7.9,7.9,0,0,0-4.7,1.4,10.5,10.5,0,0,0-3.4,3.8A11.9,11.9,0,0,0,893,494.9Z"/><path class="ee58baa4-6f3c-4761-9135-c3af63f4cdce" d="M945,476.1l1.2,10.6-.3-1.6a16.6,16.6,0,0,1,4.6-5.9,21.8,21.8,0,0,1,5.8-3.7,11.5,11.5,0,0,1,4.3-1.4l-.6,12.4a10.7,10.7,0,0,0-7.4,1.4,13.5,13.5,0,0,0-6.4,11.6v15.1H933.9V476.1Z"/><path class="bb03061c-6e55-4e65-8ab3-3a6cd07948fc" d="M318.6,556.4h12.8v52.5h30.5v12.4H318.6Z"/><path class="bb03061c-6e55-4e65-8ab3-3a6cd07948fc" d="M369.2,621.3l29.3-67.5h.7l29.2,67.5H413.6l-18.7-47.4,9.3-6.4-22.4,53.8Zm20-23.5h19.5l4.5,10.8h-28Z"/><path class="bb03061c-6e55-4e65-8ab3-3a6cd07948fc" d="M480.8,597.3a10.1,10.1,0,0,0,1.9,5.9,14.1,14.1,0,0,0,4.8,4.6,13.2,13.2,0,0,0,6.7,1.8,13.7,13.7,0,0,0,11.9-6.4,10.9,10.9,0,0,0,1.9-5.9V556.4h12.6v41.2a22.6,22.6,0,0,1-3.6,12.6,24.2,24.2,0,0,1-9.5,8.7,29.9,29.9,0,0,1-26.5,0,25.6,25.6,0,0,1-9.5-8.7,23.4,23.4,0,0,1-3.5-12.6V556.4h12.8Z"/><path class="bb03061c-6e55-4e65-8ab3-3a6cd07948fc" d="M595.5,623.9l-49.2-44.4,3.8,2.1.3,39.7h-13V553.8h.5l48.2,44.3-2.9-1.2-.2-40.5h12.8v67.5Z"/><path class="bb03061c-6e55-4e65-8ab3-3a6cd07948fc" d="M614,556.4h12.8v64.9H614Z"/><path class="bb03061c-6e55-4e65-8ab3-3a6cd07948fc" d="M641,588.9a32.3,32.3,0,0,1,2.5-12.7,34.6,34.6,0,0,1,7.1-10.6,35.2,35.2,0,0,1,10.6-7.3,32.5,32.5,0,0,1,12.8-2.6,32.2,32.2,0,0,1,12.8,2.6,35.7,35.7,0,0,1,10.7,7.3,36.8,36.8,0,0,1,7.2,10.6,32.8,32.8,0,0,1,0,25.6,35,35,0,0,1-7.2,10.5,33.3,33.3,0,0,1-10.7,7.1A32.2,32.2,0,0,1,674,622a32.5,32.5,0,0,1-12.8-2.6A32.5,32.5,0,0,1,641,588.9Zm13.2,0a19.9,19.9,0,0,0,1.6,8.1,19.3,19.3,0,0,0,4.3,6.6,18.8,18.8,0,0,0,14.4,6,19.9,19.9,0,0,0,7.7-1.5,18.7,18.7,0,0,0,6.2-4.5,20.6,20.6,0,0,0,4.2-6.6,21.6,21.6,0,0,0,1.5-8.1,22.6,22.6,0,0,0-1.6-8.2,20.6,20.6,0,0,0-4.2-6.6,19.7,19.7,0,0,0-22-4.5,21.8,21.8,0,0,0-6.4,4.5,20.6,20.6,0,0,0-4.2,6.6A22.5,22.5,0,0,0,654.2,588.9Zm36.3-47.8-13,11.9H670l6.9-11.9Z"/><path class="bb03061c-6e55-4e65-8ab3-3a6cd07948fc" d="M779.6,623.9l-49.2-44.4,3.8,2.1.2,39.7H721.5V553.8h.5l48.1,44.3-2.8-1.2-.2-40.5h12.8v67.5Z"/><path class="bb03061c-6e55-4e65-8ab3-3a6cd07948fc" d="M314.9,703l10.9-10.8c3.5-3.6,6.6-7,9.4-10.4a61.3,61.3,0,0,0,6.5-9.8,20.9,20.9,0,0,0,2.5-9.3,15.4,15.4,0,0,0-1.2-6.5,12.9,12.9,0,0,0-3.1-4.3,12.7,12.7,0,0,0-4.2-2.4,13.3,13.3,0,0,0-4.3-.7,14.4,14.4,0,0,0-6.3,1.2,11.7,11.7,0,0,0-3.9,3.4,11.9,11.9,0,0,0-2.1,4.2,17.1,17.1,0,0,0-.6,4.3,16.4,16.4,0,0,0,.9,5.6,12.7,12.7,0,0,0,2.5,4.2l-2.6,2.4a14,14,0,0,1-2.7-3.3,15.7,15.7,0,0,1-1.8-4.2,24.9,24.9,0,0,1-.5-4.6,18,18,0,0,1,2-8.7,14.3,14.3,0,0,1,6-6.2,18,18,0,0,1,9.6-2.4,16.1,16.1,0,0,1,8.8,2.4,15.4,15.4,0,0,1,5.8,6.3,19.1,19.1,0,0,1,2.1,8.9,22.6,22.6,0,0,1-2.3,9.7,55.5,55.5,0,0,1-6.1,9.4c-2.5,3.1-5.2,6.2-8.1,9.2l-8.5,9.1-1.7-.9h29.8V703Z"/><path class="bb03061c-6e55-4e65-8ab3-3a6cd07948fc" d="M383.6,703.4a22.5,22.5,0,0,1-10.2-2.2,22,22,0,0,1-7.6-6.3,31.9,31.9,0,0,1-4.7-9.4,42.1,42.1,0,0,1,0-23,27,27,0,0,1,4.6-9.3,20.4,20.4,0,0,1,7.6-6.1,22.9,22.9,0,0,1,10.3-2.2,21.4,21.4,0,0,1,17.8,8.5,31.3,31.3,0,0,1,4.7,9.3,37.9,37.9,0,0,1,1.6,11.4,39,39,0,0,1-1.6,11.5,31.3,31.3,0,0,1-4.7,9.3,21.4,21.4,0,0,1-17.8,8.5Zm0-4.1a17.1,17.1,0,0,0,10.2-3.1,19.8,19.8,0,0,0,7-8.7,32.7,32.7,0,0,0,2.5-13.4,31.9,31.9,0,0,0-2.5-13.3,20.7,20.7,0,0,0-7-8.8,17.7,17.7,0,0,0-10.2-3,18.1,18.1,0,0,0-10.3,3,20.3,20.3,0,0,0-6.8,8.8,35.6,35.6,0,0,0,0,26.7,19.4,19.4,0,0,0,6.8,8.7A17.4,17.4,0,0,0,383.6,699.3Z"/><path class="bb03061c-6e55-4e65-8ab3-3a6cd07948fc" d="M417.1,703l10.4-10.7c3.4-3.5,6.4-6.8,9.1-10a47.7,47.7,0,0,0,6.3-9.3,18.5,18.5,0,0,0,2.4-8.7,9.4,9.4,0,0,0-.7-3.4,7.6,7.6,0,0,0-1.8-2.5,9.2,9.2,0,0,0-2.9-1.7,13.6,13.6,0,0,0-3.6-.5,12.5,12.5,0,0,0-3.6.5,7.2,7.2,0,0,0-2.7,1.6,6.5,6.5,0,0,0-1.6,2.1,5.3,5.3,0,0,0-.6,2.4,13.1,13.1,0,0,0,.9,5,14.2,14.2,0,0,0,2.6,3.8l-7.9,7.1a10.7,10.7,0,0,1-4.4-4.1,23.7,23.7,0,0,1-2.7-6.1,21.5,21.5,0,0,1-.9-5.4,17.2,17.2,0,0,1,2.7-9.2,19.5,19.5,0,0,1,7.8-7.2,25.8,25.8,0,0,1,12.6-2.9,19.5,19.5,0,0,1,10.6,2.8,19.8,19.8,0,0,1,7,7.1,20.1,20.1,0,0,1,2.5,9.5,22.2,22.2,0,0,1-1.3,7.7,36.5,36.5,0,0,1-3.3,7.3c-1.5,2.3-3.1,4.7-4.9,7l-5.7,7.1-5.8-1.7h21.7V703Z"/><path class="bb03061c-6e55-4e65-8ab3-3a6cd07948fc" d="M469.5,644.5h17.6V703H474.2V656.9h-4.7Z"/><path class="ec7e8b86-8b14-4ff2-a9f7-23728bbdf65e" d="M159.7,392l5.5-4.8c1.6,1.8,3.2,3.6,4.7,5.5l-5.4,4.7Z"/><path class="ec7e8b86-8b14-4ff2-a9f7-23728bbdf65e" d="M202.2,391.8l5.1-4.9c1.6,1.6,4.5,5.1,4.5,5.1s-3.3,3.6-5.1,5.2Z"/><path class="ec7e8b86-8b14-4ff2-a9f7-23728bbdf65e" d="M173.1,400.1c4.3-3.8,8.5-7.8,13-11.4,3.9,4.2,7.8,8.5,11.6,12.8-4.3,4-8.5,8-13.1,11.6C180.7,408.9,176.8,404.6,173.1,400.1Z"/><path class="ec7e8b86-8b14-4ff2-a9f7-23728bbdf65e" d="M133.5,403.4c4.3-3.9,8.6-7.9,13.1-11.6,3.8,4.4,7.8,8.6,11.5,13.1l-12.9,11.6C141.2,412.2,137.2,407.9,133.5,403.4Z"/><path class="ec7e8b86-8b14-4ff2-a9f7-23728bbdf65e" d="M213.9,403.5c4.4-3.9,8.7-7.9,13.1-11.7,3.8,4.4,7.8,8.7,11.6,13.1l-13.1,11.7C221.6,412.2,217.7,407.9,213.9,403.5Z"/><path class="ec7e8b86-8b14-4ff2-a9f7-23728bbdf65e" d="M94.6,415.5,107.7,404c3.9,4.2,7.9,8.5,11.6,13-4.3,3.9-8.6,7.8-13.1,11.6C102.4,424.2,98.4,419.9,94.6,415.5Z"/><path class="ec7e8b86-8b14-4ff2-a9f7-23728bbdf65e" d="M252.2,415.6c4.3-4,8.7-7.9,13.1-11.6,3.9,4.3,7.8,8.6,11.6,13-4.3,3.8-8.6,7.8-13.1,11.6C260,424.3,256,420,252.2,415.6Z"/><path class="ec7e8b86-8b14-4ff2-a9f7-23728bbdf65e" d="M196.5,418.3a101.5,101.5,0,0,1,8.6-7.4c2.4,2.8,4.8,5.5,7.3,8.2-2.7,2.6-5.5,5.2-8.5,7.7Z"/><path class="ec7e8b86-8b14-4ff2-a9f7-23728bbdf65e" d="M159.7,419.1l8.2-7.5c2.6,2.7,5.1,5.5,7.5,8.3a99.7,99.7,0,0,1-8.3,7.6C164.5,424.7,162.1,422,159.7,419.1Z"/><path class="ec7e8b86-8b14-4ff2-a9f7-23728bbdf65e" d="M123,425.7c2.7-2.6,5.5-5.2,8.3-7.6,2.6,2.7,5.1,5.5,7.5,8.5l-8.3,7.4Z"/><path class="ec7e8b86-8b14-4ff2-a9f7-23728bbdf65e" d="M232.9,425.1c2.7-2.6,5.4-5.1,8.3-7.5,2.6,2.7,5.1,5.5,7.5,8.3-2.7,2.6-5.5,5.1-8.3,7.5C237.8,430.7,235.3,427.9,232.9,425.1Z"/><path class="ec7e8b86-8b14-4ff2-a9f7-23728bbdf65e" d="M180.2,425.2l5.3-4.9c1.7,1.8,3.3,3.7,4.9,5.5-1.7,1.7-3.5,3.3-5.3,4.9C183.4,428.9,181.8,427,180.2,425.2Z"/><path class="ec7e8b86-8b14-4ff2-a9f7-23728bbdf65e" d="M215.2,427.8l5.6-4.7,4.7,5.4-5.4,4.9C218.4,431.6,216.8,429.7,215.2,427.8Z"/><path class="ec7e8b86-8b14-4ff2-a9f7-23728bbdf65e" d="M144.2,428.8l5.5-4.8,4.8,5.4c-1.8,1.5-5.2,4.7-5.2,4.7S145.6,430.5,144.2,428.8Z"/><path class="ec7e8b86-8b14-4ff2-a9f7-23728bbdf65e" d="M249.4,435.7l5.5-4.8,4.8,5.4-5.5,4.9Z"/><path class="ec7e8b86-8b14-4ff2-a9f7-23728bbdf65e" d="M111,436.5l5.5-4.8,4.6,5.4a61.7,61.7,0,0,1-5.4,4.8Z"/><path class="ec7e8b86-8b14-4ff2-a9f7-23728bbdf65e" d="M130.3,441.4a162.4,162.4,0,0,1,42-8.5c9-.5,18.1-.4,27.1-.1s18.6,2.6,27.8,4.6c5.2,1.4,10.6,2.4,15.6,4.6l3.2,1.3c4.9,1.7,10.3,2.8,14.2,6.3a34.9,34.9,0,0,1-2.2,5.3c-2.7,5.5-5.1,11.2-8.1,16.6a148.9,148.9,0,0,0-108.8-7.7,165.6,165.6,0,0,0-19.6,7.6c-3.7-7.2-7.1-14.6-10.5-22A102,102,0,0,1,130.3,441.4Z"/><path class="ec7e8b86-8b14-4ff2-a9f7-23728bbdf65e" d="M115.2,481.5H262.5l-6,5.1c-22.6,18.2-45,36.7-67.6,54.7-2.2-1.5-4.3-3-6.3-4.6l-61.9-50.5Zm72.7,31.1c-.8.1-7.6,0-9.5,0,.5.7,6.8,6,6.8,6s-2.6,8.2-2.4,8.4,7.7-4.8,7.7-4.8c1.9.8,8.5,4.5,8.5,4.5s-3.4-7.9-3.4-8.1,4.9-4.8,7.2-6h-9.4l-2.8-7.4S188.5,510.6,187.9,512.6Z"/><path class="ec7e8b86-8b14-4ff2-a9f7-23728bbdf65e" d="M96.6,494.6c6.1,4.4,11.7,9.2,17.6,13.8,19.4,15.5,38.8,31.1,58.3,46.4-3.4,2.9-7,5.5-10.2,8.5s-6.2,7.7-5.8,12.6c-.1,3.2,1.8,6,4.1,8.1,4.4,4.2,9.5,7.7,13.9,11.9-20.7,17.2-41.4,34.5-61.8,52.1l-6.5,5a85.2,85.2,0,0,1-9.7-40.5C96.6,573.2,96.4,533.9,96.6,494.6Zm37.1,54.1s8.3,4.6,7.6,4.6-2.5-8.3-2.4-8.6,5.5-5.5,6.2-6h-7.7l-3.5-7.8-3.1,7.8h-8.3s5.3,5.6,5.4,5.9-2.7,9.1-2.7,9.1,8.5-5,8.9-5m-14.3,21.8c-.2.1-9.2,0-9.2,0s4.8,5,6.5,6.1c0,0-3,8.3-2.7,8.5s6.9-3.7,8.1-4.2l7.2,4.3c.1-.3-2.1-8.3-2.1-8.6s6.5-6.1,6.5-6.1-8.1.1-8.3,0-3.1-7.3-3.2-7.3A57.3,57.3,0,0,0,119.8,570.5Zm11.1,33.9c-.2.9-2.6,8.6-2.6,8.6l7.5-4.6s6.9,4.8,7.2,4.5-2-8.4-1.9-8.5,5.5-5,5.8-5.6c-3.2-.1-4.8.1-8,0a59.5,59.5,0,0,0-2.9-8.1c-.3,0-2.4,6.3-3,8.2h-8.4M135.8,609"/><path class="ec7e8b86-8b14-4ff2-a9f7-23728bbdf65e" d="M267.6,504.7c4.1-3.2,8-6.5,12.2-9.4-.2,5.9-.1,11.9-.1,17.8V609c0,5,.1,9.9-.1,14.8a77.7,77.7,0,0,1-6.8,23.7l-66.2-51.7c4.2-4.1,9.3-7.3,12.6-12.2a38.1,38.1,0,0,0,3.3-7.1,5.4,5.4,0,0,0-.1-4.8,18.3,18.3,0,0,0-4.5-7.4c-3.9-3.7-8.3-6.7-12.2-10.3,4.1-3.6,8.5-6.9,12.8-10.3Zm-26,34c-.5,0-8.2-.1-8.8,0,1.2.7,6.7,4.9,6.9,5.1s-3.2,8.4-3,8.7,7.4-4.1,8.1-4,7.1,4.3,7.1,4.3-2.7-8-2.5-8.4,5.4-4.9,6.4-5.7h-7.9s-2.2-7.6-2.8-7.6S241.7,538.7,241.6,538.7Zm11.3,31.5-.3.2c-1.5.3-8.3,0-8.3.1s6.1,5.3,6.1,5.3-2.9,8.8-2.8,9,8.4-4.9,8.4-4.9,7.2,5.1,7.4,5-1.8-8.6-1.8-8.6l6.3-5.8c-.4-.1,0,.1-.4,0h-3.6a6.6,6.6,0,0,1-1.4,0h-3.1c-.4-.5-3.1-7.8-3.4-7.8S252.9,570.2,252.9,570.2Zm-13.2,28.6c-.2.1-8.3,0-8.4,0l6.6,6.4s-2.5,7.9-2.1,8,6.4-3.3,7.4-4a75.5,75.5,0,0,0,7.3,4c.2-.1-2.2-8-2.2-8.1a.1.1,0,0,1,.1-.1c.2,0,5.1-5.1,6.2-5.9s-.7-.2-4-.3h-3.5c-.6,0-.1.1-.6,0a51.3,51.3,0,0,1-3.4-7.4S240.4,598.7,239.7,598.8Zm.3-.8"/><polygon class="ec7e8b86-8b14-4ff2-a9f7-23728bbdf65e" points="179 574.5 191.6 563.2 203.2 576 190.5 587.5 179 574.5"/><path class="ec7e8b86-8b14-4ff2-a9f7-23728bbdf65e" d="M186.1,613.2l4.9-4.1c4.2,3.8,8.6,7.3,13,10.9l51.1,42.1c2,1.6,3.8,3.3,5.7,5.1-18.2,22.1-47.1,34.2-75.5,33.2-8.9.1-17.5-2-26-4.4a88.5,88.5,0,0,1-39.6-24.7C141.7,651.8,164,632.6,186.1,613.2Zm4.7,12.3c-.2.1-3.1,8.1-3.3,8.2s-5.8-.1-8.5,0l6.3,5.6c.1.1-2,8.1-2.4,8.5s6.3-4.2,8.2-5.1c0,0,7,5.1,7.2,4.9s-1.9-6.9-2.1-7.9l6.8-6c-2.5-.1-7.9.2-8.2,0S190.9,625.5,190.8,625.5Z"/></svg>